/* XPM */
static char *result[] = {
/* columns rows colors chars-per-pixel */
"34 30 12 1 ",
"  c #33323D",
". c #407769",
"X c #B43B6A",
"o c #DE5050",
"O c #639D6D",
"+ c #F18770",
"@ c #EED878",
"# c #B36AA0",
"$ c #E39BBA",
"% c #F1C5CC",
"& c white",
"* c None",
/* pixels */
"**********************************",
"**********************************",
"**********************************",
"*******************  *************",
"*****************  $$ ************",
"**************** $$$$ ************",
"*************** $$$$  ************",
"************** $$$%$# ************",
"************* $$$$$$# ************",
"************* $%%$$$# ************",
"************ $$%%$$$$# ***********",
"************ $$$$$%$$# ***********",
"*********** $$$$$$$$$#  **********",
"*****       #$$$$$$$#         ****",
"**** $$$%$$$$$$$$$$$$$$$$$$$$$ ***",
"**** $$$$$$$         #$$%$$$$$ ***",
"*****  #$$$ oo++o+ooo #$$$$#  ****",
"******* ##$ o       o ##### ******",
"********  $ XXXXXXXXX ##   *******",
"********* $$         #### ********",
"********* $$$$$$$$$$$$### ********",
"********* ####    ####### ********",
"*********     &@@@        ********",
"********* OOOO.....OOOO.. ********",
"********* OOO        OO.. ********",
"********** O.. ***** ..  *********",
"*********** ## ****** ## *********",
"************   ******   **********",
"**********************************",
"**********************************"
};
