/* XPM */
static char *result[] = {
/* columns rows colors chars-per-pixel */
"32 32 35 1 ",
"  c #6C5C68",
". c #785F6A",
"X c #7E656D",
"o c #7F6C7D",
"O c #805F6C",
"+ c #85626D",
"@ c #8A686F",
"# c #91656F",
"$ c #866F72",
"% c #8F6D72",
"& c #996571",
"* c #976B72",
"= c #9E6872",
"- c #947575",
"; c #9C7074",
": c #987D79",
"> c #A36E74",
", c #A17677",
"< c #A87377",
"1 c #A67E7A",
"2 c #AE7979",
"3 c #B37F7C",
"4 c #AA867E",
"5 c #B2817D",
"6 c #8B6F80",
"7 c #917885",
"8 c #848799",
"9 c #AF8E81",
"0 c #B78780",
"q c #BC8F83",
"w c #A28D93",
"e c #9D9AA6",
"r c #C09786",
"t c #C59F8A",
"y c None",
/* pixels */
"yyyyyyyyyyyyyyyyyyyyyyyyyyyyyyyy",
"yyyyyyyyyyyyyyyyyyyyyyyyyyyyyyyy",
"yyyyyyyyyyyyyyyyyyyyyyyyyyyyyyyy",
"yyyyyyyyyyyyyyyyyyyyyyyyyyyyyyyy",
"yyyyyyyyyyyyyyyyyyyyyyyyyyyyyyyy",
"yyyyyyyyyyyyyyyyyyyyyyyyyyyyyyyy",
"yyyyyyyyyyyyyyyyyyyyyyyyyyyyyyyy",
"yyyyyyyyyyyy        yyyyyyyyyyyy",
"yyyyyyyyyy$:tttttttt9: yyyyyyyyy",
"yyyyyyyy 9trq%%%%%%1qtt$yyyyyyyy",
"yyyyyyy 9r1X .@%%%.. %qt$yyyyyyy",
"yyyyyyy$r,.*3<3332<32+X09 yyyyyy",
"yyyyyyy:0@>33333q;3332#,r yyyyyy",
"yyyyyy t3+<332333;<333=%q:yyyyyy",
"yyyyyy q%&333*2333*233<O3:yyyyyy",
"yyyyyy q%@-:::::::::::%.3:yyyyyy",
"yyyyyy q%3t:tttttttt99q%3:yyyyyy",
"yyyyyy q%3r%tttttttt440%3:yyyyyy",
"yyyyyy q%@%%%%%%%%%%%%%.3:yyyyyy",
"yyyyyy q%&===O&===O&===O3:yyyyyy",
"yyyyyy q%=333<3333<37w<+3:yyyyyy",
"yyyyyy q%=33320;3323+e<+3:yyyyyy",
"yyyyyy q%=023<323323+8<+3:yyyyyy",
"yyyyyy q%=3;333333<36o<+3:yyyyyy",
"yyyyyy q%&333*2333*2<2<O3:yyyyyy",
"yyyyyy q%@-:::::::::::%.3:yyyyyy",
"yyyyyy q%3t:tttttttt99q%3:yyyyyy",
"yyyyyy q%3r%tttttttt440%3:yyyyyy",
"yyyyyy q%@%%%%%%%%%%%%%.,-yyyyyy",
"yyyyyy 1%&===O&===O&#==O%%yyyyyy",
"yyyyyy %%=333233332353<+,-yyyyyy",
"yyyyyy X +%%%@%%%%@%@%@. Xyyyyyy"
};
