/* XPM */
static char *result[] = {
/* columns rows colors chars-per-pixel */
"32 32 36 1 ",
"  c #6C5C68",
". c #745C69",
"X c #785F6A",
"o c #7C5C6A",
"O c #7E656D",
"+ c #805F6C",
"@ c #885F6D",
"# c #8C5C6D",
"$ c #85626D",
"% c #86656E",
"& c #8D626E",
"* c #8A686F",
"= c #95626F",
"- c #91656F",
"; c #866F72",
": c #8F6D72",
"> c #996571",
", c #926871",
"< c #976B72",
"1 c #9E6872",
"2 c #947575",
"3 c #987D79",
"4 c #A36E74",
"5 c #A17677",
"6 c #A87377",
"7 c #A67E7A",
"8 c #AE7979",
"9 c #B37F7C",
"0 c #78768E",
"q c #7E7F93",
"w c #AF8E81",
"e c #B78780",
"r c #BC8F83",
"t c #C09786",
"y c #C59F8A",
"u c None",
/* pixels */
"uuuuuuuuuuuuuuuuuuuuuuuuuuuuuuuu",
"uuuuuuuuuuuuuuuuuuuuuuuuuuuuuuuu",
"uuuuuuuuuuuuuuuuuuuuuuuuuuuuuuuu",
"uuuuuuuuuuuuuuuuuuuuuuuuuuuuuuuu",
"uuuuuuuuuuuuuuuuuuuuuuuuuuuuuuuu",
"uuuuuuuuuuuuuuuuuuuuuuuuuuuuuuuu",
"uuuuuuuuuuuuuuuuuuuuuuuuuuuuuuuu",
"uuuuuuuuuuuu        uuuuuuuuuuuu",
"uuuuuuuuuu;3yyyyyyyyw3 uuuuuuuuu",
"uuuuuuuu wytr::::::7ryy;uuuuuuuu",
"uuuuuuu wt7O         :ry;uuuuuuu",
"uuuuuuu;t5X<4>=X      Oew uuuuuu",
"uuuuuuu3e%189&1-       5t uuuuuu",
"uuuuuu y9o198&=1       :r3uuuuuu",
"uuuuuu r:@18,>@>        93uuuuuu",
"uuuuuu r:X:32::*        93uuuuuu",
"uuuuuu r:87yy995        93uuuuuu",
"uuuuuu r:65yt995        93uuuuuu",
"uuuuuu r:X:::::*        93uuuuuu",
"uuuuuu r:+1>o#o#        93uuuuuu",
"uuuuuu r:>1961=q        93uuuuuu",
"uuuuuu r:=198&>.q       93uuuuuu",
"uuuuuu r:>>96>>.0       93uuuuuu",
"uuuuuu r:>&991=0        93uuuuuu",
"uuuuuu r:+18,>&>        93uuuuuu",
"uuuuuu r:X:32::*        93uuuuuu",
"uuuuuu r:87yy995        93uuuuuu",
"uuuuuu r:65yt995        93uuuuuu",
"uuuuuu r:X:::::*        52uuuuuu",
"uuuuuu 7:@1>o#o#        ::uuuuuu",
"uuuuuu ::>6981>1        52uuuuuu",
"uuuuuu O +*:*$+$         Ouuuuuu"
};
