/* XPM */
static char *result[] = {
/* columns rows colors chars-per-pixel */
"32 32 37 1 ",
"  c #6C5C68",
". c #785F6A",
"X c #7E656D",
"o c #7F6C7D",
"O c #805F6C",
"+ c #905F6E",
"@ c #85626D",
"# c #8A686F",
"$ c #95626F",
"% c #91656F",
"& c #866F72",
"* c #8F6D72",
"= c #996571",
"- c #976B72",
"; c #9E6872",
": c #947575",
"> c #9C7074",
", c #987D79",
"< c #A36E74",
"1 c #A17677",
"2 c #A87377",
"3 c #A07878",
"4 c #A67E7A",
"5 c #AE7979",
"6 c #B37F7C",
"7 c #A5807B",
"8 c #AA867E",
"9 c #78768E",
"0 c #7E7F93",
"q c #8B6F80",
"w c #857583",
"e c #AF8E81",
"r c #B78780",
"t c #BC8F83",
"y c #C09786",
"u c #C59F8A",
"i c None",
/* pixels */
"iiiiiiiiiiiiiiiiiiiiiiiiiiiiiiii",
"iiiiiiiiiiiiiiiiiiiiiiiiiiiiiiii",
"iiiiiiiiiiiiiiiiiiiiiiiiiiiiiiii",
"iiiiiiiiiiiiiiiiiiiiiiiiiiiiiiii",
"iiiiiiiiiiiiiiiiiiiiiiiiiiiiiiii",
"iiiiiiiiiiiiiiiiiiiiiiiiiiiiiiii",
"iiiiiiiiiiiiiiiiiiiiiiiiiiiiiiii",
"iiiiiiiiiiii        iiiiiiiiiiii",
"iiiiiiiiii&,uuuuuuuue, iiiiiiiii",
"iiiiiiii euyt******4tuu&iiiiiiii",
"iiiiiii ey4X .**#.   *tu&iiiiiii",
"iiiiiii&y1.-626562<%. Xre iiiiii",
"iiiiiii,r#<66667665;;. 1y iiiiii",
"iiiiii u6@26656>626;;@ *t,iiiiii",
"iiiiii t*+665-665-6;;=  6,iiiiii",
"iiiiii t*@:,,,,,,,***#  6,iiiiii",
"iiiiii t*2eeuuuuuut116  6,iiiiii",
"iiiiii t*248uuuuuur116  6,iiiiii",
"iiiiii t*@***********#  6,iiiiii",
"iiiiii t*+;;=O;;=O;;;=  6,iiiiii",
"iiiiii t*$666266622qw;  6,iiiiii",
"iiiiii t*$666536652@0;  6,iiiiii",
"iiiiii t*$r56256652@9;  6,iiiiii",
"iiiiii t*$6>6666622qo;  6,iiiiii",
"iiiiii t*+665-665-2;;=  6,iiiiii",
"iiiiii t*@:,,,,,,,***#  6,iiiiii",
"iiiiii t*2eeuuuuuut116  6,iiiiii",
"iiiiii t*248uuuuuur116  6,iiiiii",
"iiiiii t*@***********#  1:iiiiii",
"iiiiii 4*+;;=O;;=O;%;=  **iiiiii",
"iiiiii **$666566652=;;  1:iiiiii",
"iiiiii X O***#***##.@@   Xiiiiii"
};
