/* XPM */
static char *result[] = {
/* columns rows colors chars-per-pixel */
"32 32 38 1 ",
"  c #6C5C68",
". c #745C69",
"X c #785F6A",
"o c #7C5C6A",
"O c #7E656D",
"+ c #805F6C",
"@ c #885F6D",
"# c #8C5C6D",
"$ c #85626D",
"% c #86656E",
"& c #8D626E",
"* c #8A686F",
"= c #95626F",
"- c #91656F",
"; c #866F72",
": c #8F6D72",
"> c #996571",
", c #976B72",
"< c #976D73",
"1 c #9A6872",
"2 c #9E6872",
"3 c #9F6B73",
"4 c #947575",
"5 c #987D79",
"6 c #A47076",
"7 c #A17677",
"8 c #A87377",
"9 c #A67E7A",
"0 c #AE7979",
"q c #B37F7C",
"w c #78768E",
"e c #7E7F93",
"r c #AF8E81",
"t c #B78780",
"y c #BC8F83",
"u c #C09786",
"i c #C59F8A",
"p c None",
/* pixels */
"pppppppppppppppppppppppppppppppp",
"pppppppppppppppppppppppppppppppp",
"pppppppppppppppppppppppppppppppp",
"pppppppppppppppppppppppppppppppp",
"pppppppppppppppppppppppppppppppp",
"pppppppppppppppppppppppppppppppp",
"pppppppppppppppppppppppppppppppp",
"pppppppppppp        pppppppppppp",
"pppppppppp;5iiiiiiiir5 ppppppppp",
"pppppppp riuy::::::9yii;pppppppp",
"ppppppp ru9O         :yi;ppppppp",
"ppppppp;u7X-3-        Otr pppppp",
"ppppppp5t%20<2X        7u pppppp",
"pppppp iqo20<=$        :y5pppppp",
"pppppp y:@2,1@+         q5pppppp",
"pppppp y:X:5::X         q5pppppp",
"pppppp y:09iyqO         q5pppppp",
"pppppp y:87itqO         q5pppppp",
"pppppp y:X::::X         q5pppppp",
"pppppp y:+2$#oo         q5pppppp",
"pppppp y:>288=e         q5pppppp",
"pppppp y:=20<>.e        q5pppppp",
"pppppp y:>>86>.w        q5pppppp",
"pppppp y:>&q8=w         q5pppppp",
"pppppp y:+2,1&+         q5pppppp",
"pppppp y:X:5::X         q5pppppp",
"pppppp y:09iyqO         q5pppppp",
"pppppp y:87itqO         q5pppppp",
"pppppp y:X::::X         74pppppp",
"pppppp 9:@2+#oo         ::pppppp",
"pppppp ::>808>$         74pppppp",
"pppppp O +***+X          Opppppp"
};
