/* XPM */
static char *result[] = {
/* columns rows colors chars-per-pixel */
"24 24 6 1 ",
"  c #33323D",
". c #4E6EC5",
"X c #66A2D8",
"o c #7FD6E7",
"O c white",
"+ c None",
/* pixels */
"++++++++++++++++++++++++",
"++++++++++++++++++++++++",
"++++++++++++++++++++++++",
"++++++++++++++++++++++++",
"++++++++++++++++++++++++",
"++++++++++++++++++++++++",
"++++++++      XX++++++++",
"+++++++ XXXXooOOX+++++++",
"++++++ XXXXooooOOX++++++",
"+++++ X....XXXXXXOX+++++",
"+++++ X....XXXXXXOX+++++",
"+++++ X....XXXXXXOX+++++",
"++++++ X....XXXXOX++++++",
"+++++++ ....XXXX +++++++",
"++++++++ ....XX ++++++++",
"+++++++++ ...X +++++++++",
"++++++++++ .. ++++++++++",
"+++++++++++  +++++++++++",
"++++++++++++++++++++++++",
"++++++++++++++++++++++++",
"++++++++++++++++++++++++",
"++++++++++++++++++++++++",
"++++++++++++++++++++++++",
"++++++++++++++++++++++++"
};
