/* XPM */
static char *result[] = {
/* columns rows colors chars-per-pixel */
"72 32 12 1 ",
"  c #33323D",
". c #944B4B",
"X c #AE7764",
"o c #D06C63",
"O c #CB9050",
"+ c #DE9970",
"@ c #EED878",
"# c #506DB3",
"$ c #6DA8DD",
"% c #F3D394",
"& c white",
"* c None",
/* pixels */
"************************************************************************",
"************************************************************************",
"************************************************************************",
"************************************************************************",
"******************************   ****   ********************************",
"*******************  ***  *** &&& ** &&& *******  ***  *****************",
"****************** + *** + ** & & ** & & ****** + *** + ****************",
"***************** ++ *** +o * &&& ** &&& ***** ++ *** +o ***************",
"***************** ++ *** +o ** o **** o ****** ++ *** +o ***************",
"***************** +++   ++o ** + **** + ****** +++   ++o ***************",
"***************** +++++++oo ** +      +    *** +++++++oo ***************",
"****************** ooooooo **  % o+++ % o+o  ** ooooooo ****************",
"*******************       ** o % o+++ % o++oo **       *****************",
"*********************   *** o+++++++++++++++oo ***   *******************",
"********************* o *** o+++++++++++++++oo *** o *******************",
"********************* o+   o++++++++++++oo++o     +o *******************",
"********************** o+o o++o+++++++o+oo++++++++o ********************",
"***********************    oo++++++++++++++oo      *********************",
"************************** ooooo     oooooooooo ************************",
"**************************      &&@&@           ************************",
"**************************  .X. @   O  .XX.X..  ************************",
"**************************      OOOOO           ************************",
"************************** #####     ########## ************************",
"************************** #$$$$######$$$$$$$## ************************",
"************************** #$$             $$## ************************",
"*************************** $## ********** ##  *************************",
"**************************** oo *********** oo *************************",
"*****************************   ***********   **************************",
"************************************************************************",
"************************************************************************",
"************************************************************************",
"************************************************************************"
};
