/* XPM */
static char *result[] = {
/* columns rows colors chars-per-pixel */
"32 32 7 1 ",
"  c #17111A",
". c #7A213A",
"X c #C44D29",
"o c #D8742D",
"O c #FFBF36",
"+ c white",
"@ c None",
/* pixels */
"@@@@@@@@@@@@@@@@@@@@@@@@@@@@@@@@",
"@@@@@@@@@@@@@@@@@@@@@@@@@@@@@@@@",
"@@@@@@@@@@@@@@@@@@@@@@@@@@@@@@@@",
"@@@@@@@@@@@@@@@@@@@@@@@@@@@@@@@@",
"@@@@@@@@@@@@@@@   @@@@@@@@@@@@@@",
"@@@@@@@@ @@@@@@@ X @@@@@@@@@@@@@",
"@@@@@@@@@ @@@@@@ XX @@ @@@@@@@@@",
"@@@@@@@@ X @@   XXXX @  @@@@@@@@",
"@@@@@@@ XX @ XXXXXXX @ X @@@@@@@",
"@@@@@@@ X @ XXooooX @@ XX @@@@@@",
"@@@@@@ X @@ ooOOOOo @@@ X @@@@@@",
"@@@@@@ X @ oOO....OO   XX @@@@@@",
"@@@@@ XXX oO..++++..OoXXX @@@@@@",
"@@@@@ XXXoO.++++++++.OoXXX @@@@@",
"@@@@@ XXoO.++++++++++.OoXX @@@@@",
"@@@@@ XXoO.++++++++++.OoXX @@@@@",
"@@@@@ XoO.++++++++++++.OoX @@@@@",
"@@@@@ XoO.++++++++++++.OoX @@@@@",
"@@@@@@ oO.++.+.++.+.++.OoX @@@@@",
"@@@@@@ XoO.++.++++.++.OoX @@@@@@",
"@@@@@@ XoO.+.+.++.+.+.OoX @@@@@@",
"@@@@@@@ oO.++++++++++.Oo @@@@@@@",
"@@@@@@@ XoO.+++..+++.OoX @@@@@@@",
"@@@@@@@@ oO.++++++++.Oo @@@@@@@@",
"@@@@@@@@ XoO.+.++.+.OoX @@@@@@@@",
"@@@@@@@@@ oO..O..O..Oo @@@@@@@@@",
"@@@@@@@@@@ oOOOOOOOOo @@@@@@@@@@",
"@@@@@@@@@@@  oooooo  @@@@@@@@@@@",
"@@@@@@@@@@@@@      @@@@@@@@@@@@@",
"@@@@@@@@@@@@@@@@@@@@@@@@@@@@@@@@",
"@@@@@@@@@@@@@@@@@@@@@@@@@@@@@@@@",
"@@@@@@@@@@@@@@@@@@@@@@@@@@@@@@@@"
};
