/* XPM */
static char *result[] = {
/* columns rows colors chars-per-pixel */
"34 93 8 1 ",
"  c #33323D",
". c #985252",
"X c #AE7764",
"o c #68538A",
"O c #7B7BAB",
"+ c #EAC088",
"@ c white",
"# c None",
/* pixels */
"#  ###############################",
" XX ##############################",
" X  ##############################",
" X. ##############################",
"    ##############################",
" +X       #############           ",
"     OOOOo  #########  oOOOOOOOOO ",
" ..  OOOOoOO         OOoOOOOOOOO #",
" XX # OOOoOOOOOOOOOOOOOoOOOOOOO ##",
" XX # OOOoOOOOOOOOOOOOOoOOOOOO ###",
" XX # OOOoO           OoOOOOO ####",
" XX # OOOoO @@@@@@@@@ OoOOOO #####",
" XX # OOOoO @   @   @ OoOOO ######",
" XX # OOOoO @   @   @ OoOO #######",
" X  # OOOoO @   @   @ OoO ########",
" X. # OOOoOO@@@@@@@@@OOoOO #######",
" XX # OOOoOO @@@@@@@ OOoOOO ######",
" XX # OOOo   @ @ @ @   oOOOO #####",
" XX # OOOo@@OOOOOOOOO@@ooOOOO ####",
" XX # OOOo @         @ oOOOOOO ###",
" XX # OOOo@@@@@@@@@@@@@oOooOOOO ##",
" XX  OOOOo             oOooOoOOO #",
"     OOOOoOOOOOOOOOOOOOoOOOOOOOOO ",
" +X       OOOOoOOOOOOOO           ",
"    ######  OOOOOOOOO  ###########",
" .. ########         #############",
" XX ##############################",
" XX ##############################",
" XX ##############################",
" XX ##############################",
"  X ##############################",
" .X ##############################",
" XX ##############################",
" XX ##############################",
" XX ##############################",
" XX ##############################",
" XX ##############################",
" XX ##############################",
" XX ##############################",
" XX ##############################",
" XX ##############################",
" .. ##############################",
" .. ##############################",
" .. ##############################",
" .. ##############################",
" .. ##############################",
" .. ##############################",
" .. ##############################",
" .. ##############################",
" .. ##############################",
" .. ##############################",
" .. ##############################",
" .. ##############################",
" .. ##############################",
" .. ##############################",
" .. ##############################",
" .. ##############################",
" .. ##############################",
"    ##############################",
"    ##############################",
" .. ##############################",
" .. ##############################",
" XX ##############################",
" .. ##############################",
" XX ##############################",
" XX ##############################",
" XX ##############################",
" XX ##############################",
" XX ##############################",
"  X ##############################",
" .X ##############################",
" XX ##############################",
" XX ##############################",
" XX ##############################",
" XX ##############################",
" XX ##############################",
" XX ##############################",
" XX ##############################",
" XX ##############################",
" XX ##############################",
" XX ##############################",
" XX ##############################",
" XX ##############################",
" XX ##############################",
" XX ##############################",
" XX ##############################",
" XX ##############################",
" XX ##############################",
" XX ##############################",
" XX ##############################",
" XX ##############################",
" .. ##############################",
" .. ##############################"
};
