/* XPM */
static char *result[] = {
/* columns rows colors chars-per-pixel */
"32 32 10 1 ",
"  c #33323D",
". c #335F61",
"X c #5A4E73",
"o c #407769",
"O c #639D6D",
"+ c #716B8E",
"@ c #9197B0",
"# c #92C191",
"$ c #A9B6C3",
"% c None",
/* pixels */
"%%                            %%",
"% #####O########OO#O########## %",
" oOOOOOOOOOOOOOOOOOOOOOOOOOOOO# ",
" ooooOOOOoo.oooOOOOOO.ooooOOOOO ",
" oooooOOOO oooooOoOOOO ooooOoOO ",
" ooooOoOOO ooooOoOOOOO oooOoOOO ",
" oooOoOOO   oooooOOOO   ooooOOO ",
"% ooooOOO   ooooOoOOO   ooooOOO ",
"%  oooOO  .  ooOoOOO  .  oooOO %",
" X  oOO  ... ooooOOO ...  oOO  %",
" +X     ..o.. oooOO ..o..     X ",
" +XX   ..ooo.  oOO ..ooo..   X+ ",
"% +XXX  oooo        ooooo  XXX+ ",
"%        oo  ..      ooo       %",
"% @@@@@+    ....         +@@@@$ ",
" $$@@@@@+    ..      .  +@@@@$$ ",
" $$$+++++           ... +++++$$ ",
" $$++++++           ..   ++++++ ",
" +++++++                       %",
"%                        +@@@@ %",
"% @@@+ $@@+             +@@@@$$ ",
" $$@+ $$$@@+            +@@@$$$ ",
" $$$+ $$++++             +++$$$ ",
" $$$+  ++++           +@@ +++$$ ",
" $$+++               +@@$$ ++++ ",
" ++++++              +++$$     %",
"%          +++        +++  +@@ %",
" $@@@@+   @@++X           +@@$$ ",
" $$@@@@+  +@XXX          +@@$$$ ",
" $$+++++   +XX        ++++++$$$ ",
" ++++++               +++++++$$ ",
"%                      +++++++ %"
};
