/* XPM */
static char *result[] = {
/* columns rows colors chars-per-pixel */
"32 32 8 1 ",
"  c #17111A",
". c #7A213A",
"X c #463C5B",
"o c #E14141",
"O c #EB5665",
"+ c #EF7884",
"@ c #FB91AD",
"# c None",
/* pixels */
"################################",
"################################",
"################################",
"################################",
"#################  #############",
"################ O. ############",
"############### @..+ ###########",
"######  ####  # O@+O #  ########",
"##### .@  # .+ +OOOO. OO #######",
"#### O.+OO  @O.+OOO.++O+. ######",
"#### @+OOOOO.O.+OOO.+OO+. ######",
"##### OOOOOOO.+OOO.+OOOO+ ######",
"######  OOOOO.OOOO.+OOOO #######",
"######## OooO.OOOO.OOOO. #######",
"######### oooo.OooooOO.oo ######",
"######### ooooooooooooooo ######",
"######### Xooooooooooooooo #####",
"######### oXoOOooooooXXooo #####",
"######### oooo.OooooXooXoo #####",
"########## oooo.OoooooooXX #####",
"########## oooo.Oooooooooo #####",
"########### oXoo.Oooooooo ######",
"########### ooXoo.OOoooOO ######",
"############ oXooo..OOO..#######",
"############# Xooooo...o #######",
"############## oooXooooo #######",
"###############  ooXooo ########",
"#################      #########",
"################################",
"################################",
"################################",
"################################"
};
