/* XPM */
static char *result[] = {
/* columns rows colors chars-per-pixel */
"32 32 6 1 ",
"  c #17111A",
". c #CF7957",
"X c #FFA070",
"o c #FFD1AB",
"O c white",
"+ c None",
/* pixels */
"++++++++++++++++++++++++++++++++",
"++++++++++++++++++++++++++++++++",
"++++++++++++++++++++++++++++++++",
"++++++++++++++++++++++++++++++++",
"+++++++++++++      +++++++++++++",
"++++++++++++ oooooo ++++++++++++",
"+++++++++++ oooooXoo +++++++++++",
"+++++++++++ oXX.. Xoo ++++++++++",
"+++++++++++      . Xoo +++++++++",
"+++++++++++++ ... + Xoo ++++++++",
"++++++++++++ XX  ++ Xooo +++++++",
"+++++++++++++  +++++ Xoo +++++++",
"++++++++++++++++++++ Xooo ++++++",
"+++++    +++++++++++ Xoooo +++++",
"++++ oooo  ++++  +++ .oooo +++++",
"+++ ooooooo +  oo  + .Xoooo ++++",
"+++ ooOOoooo oooooo  .Xoooo ++++",
"+++ ooOoooooooooooooo Xooooo +++",
"+++ ooooooooooooooooooooooooo ++",
"+++ oooooooo   ooooooooooooXX ++",
"+++ ooooooo ...  ooooooXXXX  +++",
"+++ oooooo .XXX.. XoXXX    +++++",
"+++ oooooo .XX XXXXX   +++++++++",
"+++ oooooo .X       ++++++++++++",
"+++ ooooo . X ++++++++++++++++++",
"+++ oooo .XXo ++++++++++++++++++",
"+++ ooo .Xoo +++++++++++++++++++",
"+++ oo .Xoo ++++++++++++++++++++",
"+++        +++++++++++++++++++++",
"++++++++++++++++++++++++++++++++",
"++++++++++++++++++++++++++++++++",
"++++++++++++++++++++++++++++++++"
};
