/* XPM */
static char *result[] = {
/* columns rows colors chars-per-pixel */
"32 32 6 1 ",
"  c #33323D",
". c #5A4E73",
"X c #716B8E",
"o c #9197B0",
"O c #A9B6C3",
"+ c None",
/* pixels */
"                               +",
"                         Xoooo +",
"                        XooooOO ",
"                        XXXXOOO ",
"                XXXX    XXXXXOO ",
"               .XXXoo    XXXXXX ",
"               ....oX          +",
"                ...X   Xoooooo +",
"                      XooooooOO ",
"            ...       XXXoooOOO ",
"           .....         XXXOOO ",
"            ...    Xooooo XXXOO ",
"                  XoooooOO XXXX ",
"                  XooooOOO     +",
"                  XXXXXOOO XooO ",
"                  XXXXXXOO XoOO ",
"                   XXXXXX  XXOO ",
"                          XXXXX ",
"                               +",
"              XXXXXX    Xooooo +",
"             .XXXXooX  XoooooOO ",
"             .....ooo  XooooOOO ",
"              .....X   XXXXXOOO ",
"                       XXXXXXOO ",
"                        XXXXXXX ",
"                ...            +",
"               .....  Xooooooo +",
"                ...  XoooooooOO ",
"                     XooooooOOO ",
"                     XXXXXXXOOO ",
"                     XXXXXXXXOO ",
"                      XXXXXXXX +"
};
