/* XPM */
static char *result[] = {
/* columns rows colors chars-per-pixel */
"32 32 6 1 ",
"  c #33323D",
". c #5A4E73",
"X c #716B8E",
"o c #9197B0",
"O c #A9B6C3",
"+ c None",
/* pixels */
"                                ",
"                                ",
"                                ",
"                                ",
"                                ",
"                                ",
"                                ",
"                                ",
"                                ",
"                                ",
"                                ",
"                                ",
"                                ",
"   ..                           ",
"  ..XX                  ..      ",
"  ..XX   .             ..XX     ",
"  ..XX  ...            ..XX     ",
"  ..XX  ...     XXXX   ..XX     ",
"  ..XX  ...    XXXooX  XooX     ",
"  XooX   .     XXXooo   Xo      ",
"   oX          XXXooo           ",
"               XXXooo           ",
"        XXX    XXOOoo XX        ",
"       XXooX   XOOOOo XoX  XXXX ",
"  XX  XXXooo X  XOOo  Xoo XXXooX",
" XXoX XXXooo XX      Xooo XXXooo",
" XXoo XXXooo XXXXX XXXooo XXXooo",
" XXoo XXXooo XXXoo XXXooo XXXooo",
" XXoo XXOOoo XXOoo XXOOoo XXOOoo",
" XOOo XOOOOo XOOOo XOOOOo XOOOOo",
" XOOO XOOOO  XOOO   OOOO  XOOOO ",
"+    +     ++    +++    ++     +"
};
