/* XPM */
static char *result[] = {
/* columns rows colors chars-per-pixel */
"32 32 6 1 ",
"  c #33323D",
". c #5A4E73",
"X c #716B8E",
"o c #9197B0",
"O c #A9B6C3",
"+ c None",
/* pixels */
"+ oooooX                        ",
" OOoooooX      ...              ",
" OOOooooX     .....             ",
" OOOXXXXX      ...              ",
" OOXXXXXX                       ",
" XXXXXXX ooooX                  ",
"+       OOooooX                 ",
"+ ooooX OOXXXXX                 ",
" OOoooX  XXXXX   XXXX           ",
" OOOoooX        ooXXX.          ",
" OOOXXXXX       Xo....          ",
" OOXXXXXXX       X...           ",
"+ XXXXXXX                       ",
"+                               ",
"+ oooooX                        ",
" OOoooooX                       ",
" OOOXXX                         ",
" OOXXX ooooooX                  ",
" XXXX OOooooooX                 ",
"+     OOOoooooX                 ",
"+ ooX OOOXXXXXX                 ",
" OOoX OOXXXXXXX                 ",
" OOOX  XXXXXXX                  ",
" OOOXX                          ",
" OOXXXX                         ",
" XXXXXXX   XXX                  ",
"+         XoXX.                 ",
" OooooX   oo...                 ",
" OOooooX   X..                  ",
" OOXXXXX                        ",
" XXXXXX                         ",
"+                               "
};
