/* XPM */
static char *result[] = {
/* columns rows colors chars-per-pixel */
"32 32 6 1 ",
"  c #33323D",
". c #5A4E73",
"X c #716B8E",
"o c #9197B0",
"O c #A9B6C3",
"+ c None",
/* pixels */
"                                ",
"                                ",
"                                ",
"                                ",
"                                ",
"                                ",
"                                ",
"                                ",
"                                ",
"                                ",
"                                ",
"                                ",
"                                ",
"                                ",
"                                ",
"                                ",
"                                ",
"          .                     ",
"   X.    ...                    ",
"  XXX.  ....                    ",
" ooX..  ...         .           ",
" ooo.    .         ...    Xoo   ",
"  o.               ....  XXXoo  ",
"                    ...  XXXXOo ",
"    ooX              .    XXOOO ",
"   oooXX                   XXO  ",
"  oooXXX                 X      ",
" oOOXXXX                 XX   X ",
" OOOOXX            ...   XXXXXoo",
" OOOOX            .....   XXooOO",
"+ OOX              ...     XXOOO",
"++                          XXO "
};
